<?xml version="1.0" encoding="utf-8"?>
<!-- Generator: Adobe Illustrator 23.0.2, SVG Export Plug-In . SVG Version: 6.00 Build 0)  -->
<svg version="1.1" id="Capa_1" xmlns="http://www.w3.org/2000/svg" xmlns:xlink="http://www.w3.org/1999/xlink" x="0px" y="0px"
	 viewBox="0 0 512 512" style="enable-background:new 0 0 512 512;" xml:space="preserve">
<style type="text/css">
	.st0{fill:#FFFFFF;}
</style>
<g>
	<g>
		<path class="st0" d="M-1,0v170h170V0H-1z M129,130H39V40h90V130z"/>
	</g>
</g>
<g>
	<g>
		<rect x="64" y="65" class="st0" width="40" height="40"/>
	</g>
</g>
<g>
	<g>
		<path class="st0" d="M341,0v170h170V0H341z M471,130h-90V40h90V130z"/>
	</g>
</g>
<g>
	<g>
		<rect x="406" y="65" class="st0" width="40" height="40"/>
	</g>
</g>
<g>
	<g>
		<path class="st0" d="M-1,342v170h170V342H-1z M129,472H39v-90h90V472z"/>
	</g>
</g>
<g>
	<g>
		<rect x="64" y="407" class="st0" width="40" height="40"/>
	</g>
</g>
<g>
	<g>
		<rect x="39" y="197" class="st0" width="40" height="40"/>
	</g>
</g>
<g>
	<g>
		<polygon class="st0" points="119,277 119,237 79,237 79,277 118,277 118,317 158,317 158,277 		"/>
	</g>
</g>
<g>
	<g>
		<rect x="279" y="77" class="st0" width="40" height="40"/>
	</g>
</g>
<g>
	<g>
		<rect x="199" y="40" class="st0" width="40" height="77"/>
	</g>
</g>
<g>
	<g>
		<rect x="239" class="st0" width="40" height="40"/>
	</g>
</g>
<g>
	<g>
		<polygon class="st0" points="239,117 239,157 199,157 199,197 279,197 279,117 		"/>
	</g>
</g>
<g>
	<g>
		<polygon class="st0" points="279,355 279,316 239,316 239,237 199,237 199,317 239,317 239,356 279,356 279,395 359,395 359,355 
					"/>
	</g>
</g>
<g>
	<g>
		<rect x="279" y="197" class="st0" width="40" height="80"/>
	</g>
</g>
<g>
	<g>
		<path class="st0" d="M471,236v-39h-73v40h-39v40h40v39h112v-80H471z M471,276h-72v-39h72V276z"/>
	</g>
</g>
<g>
	<g>
		<rect x="471" y="355" class="st0" width="40" height="80"/>
	</g>
</g>
<g>
	<g>
		<rect x="319" y="277" class="st0" width="40" height="40"/>
	</g>
</g>
<g>
	<g>
		<rect x="359" y="395" class="st0" width="40" height="40"/>
	</g>
</g>
<g>
	<g>
		<rect x="399" y="355" class="st0" width="40" height="40"/>
	</g>
</g>
<g>
	<g>
		<polygon class="st0" points="399,435 399,512 439,512 439,475 471,475 471,435 		"/>
	</g>
</g>
<g>
	<g>
		<rect x="199" y="356" class="st0" width="40" height="76"/>
	</g>
</g>
<g>
	<g>
		<polygon class="st0" points="319,472 319,432 239,432 239,512 279,512 279,472 318,472 318,512 358,512 358,472 		"/>
	</g>
</g>
<g>
	<g>
		<rect x="119" y="197" class="st0" width="80" height="40"/>
	</g>
</g>
<g>
	<g>
		<rect x="-1" y="237" class="st0" width="40" height="80"/>
	</g>
</g>
</svg>
