<?xml version="1.0" encoding="utf-8"?>
<!-- Generator: Adobe Illustrator 23.0.2, SVG Export Plug-In . SVG Version: 6.00 Build 0)  -->
<svg version="1.1" id="Editable-line" xmlns="http://www.w3.org/2000/svg" xmlns:xlink="http://www.w3.org/1999/xlink" x="0px"
	 y="0px" viewBox="0 0 32 32" style="enable-background:new 0 0 32 32;" xml:space="preserve">
<style type="text/css">
	.st0{fill:#FFFFFF;}
</style>
<path class="st0" d="M27,18.7l-0.5-0.3c-2-1.2-2-4,0-5.2l0.5-0.3c1-0.6,1.3-1.8,0.7-2.7l-1-1.7c-0.6-1-1.8-1.3-2.7-0.7L23.5,8
	c-2,1.2-4.5-0.3-4.5-2.6V4.8c0-1.1-0.9-2-2-2h-2c-1.1,0-2,0.9-2,2v0.6c0,2.3-2.5,3.8-4.5,2.6L8,7.7C7,7.2,5.8,7.5,5.2,8.5l-1,1.7
	c-0.6,1-0.2,2.2,0.7,2.7l0.5,0.3c2,1.2,2,4,0,5.2L5,18.7c-1,0.6-1.3,1.8-0.7,2.7l1,1.7c0.6,1,1.8,1.3,2.7,0.7l0.5-0.3
	c2-1.2,4.5,0.3,4.5,2.6v0.6c0,1.1,0.9,2,2,2h2c1.1,0,2-0.9,2-2v-0.6c0-2.3,2.5-3.8,4.5-2.6l0.5,0.3c1,0.6,2.2,0.2,2.7-0.7l1-1.7
	C28.3,20.5,28,19.3,27,18.7z M16,19.8c-2.2,0-4-1.8-4-4s1.8-4,4-4s4,1.8,4,4S18.2,19.8,16,19.8z"/>
</svg>
